<svg xmlns="http://www.w3.org/2000/svg" width="1200" height="400" viewBox="0 0 1200 400"><defs><linearGradient id="bg" x1="0%" x2="100%" y1="0%" y2="100%"><stop offset="0%" style="stop-color:#0f172a"/><stop offset="50%" style="stop-color:#1e293b"/><stop offset="100%" style="stop-color:#0f172a"/></linearGradient><linearGradient id="accent" x1="0%" x2="100%" y1="0%" y2="0%"><stop offset="0%" style="stop-color:#06b6d4"/><stop offset="100%" style="stop-color:#14b8a6"/></linearGradient></defs><rect width="1200" height="400" fill="url(#bg)"/><circle cx="200" cy="200" r="160" fill="#06b6d4" opacity=".035"/><circle cx="200" cy="200" r="100" fill="#06b6d4" opacity=".025"/><circle cx="1000" cy="200" r="160" fill="#14b8a6" opacity=".035"/><circle cx="1000" cy="200" r="100" fill="#14b8a6" opacity=".025"/><circle cx="600" cy="350" r="100" fill="#8b5cf6" opacity=".025"/><g stroke="#94a3b8" stroke-width=".5" opacity=".04"><line x1="0" x2="1200" y1="80" y2="80"/><line x1="0" x2="1200" y1="160" y2="160"/><line x1="0" x2="1200" y1="240" y2="240"/><line x1="0" x2="1200" y1="320" y2="320"/><line x1="120" x2="120" y1="0" y2="400"/><line x1="240" x2="240" y1="0" y2="400"/><line x1="360" x2="360" y1="0" y2="400"/><line x1="480" x2="480" y1="0" y2="400"/><line x1="600" x2="600" y1="0" y2="400"/><line x1="720" x2="720" y1="0" y2="400"/><line x1="840" x2="840" y1="0" y2="400"/><line x1="960" x2="960" y1="0" y2="400"/><line x1="1080" x2="1080" y1="0" y2="400"/></g><polyline fill="none" stroke="#06b6d4" stroke-width="2" points="30 200 80 200 100 200 115 170 125 240 135 180 145 210 155 200 250 200" opacity=".3"/><polyline fill="none" stroke="#14b8a6" stroke-width="2" points="950 200 1000 200 1020 200 1035 170 1045 240 1055 180 1065 210 1075 200 1170 200" opacity=".3"/><g fill="none" stroke="#06b6d4" stroke-width="1.5" opacity=".18"><path d="M 80,60 Q 100,100 80,140 Q 60,180 80,220 Q 100,260 80,300 Q 60,340 80,370"/><path d="M 100,60 Q 80,100 100,140 Q 120,180 100,220 Q 80,260 100,300 Q 120,340 100,370"/><line x1="82" x2="98" y1="100" y2="100"/><line x1="68" x2="112" y1="180" y2="180"/><line x1="82" x2="98" y1="260" y2="260"/><line x1="68" x2="112" y1="340" y2="340"/></g><g opacity=".15"><circle cx="1080" cy="80" r="4" fill="#14b8a6"/><circle cx="1120" cy="120" r="4" fill="#14b8a6"/><circle cx="1060" cy="150" r="4" fill="#14b8a6"/><circle cx="1140" cy="180" r="4" fill="#14b8a6"/><circle cx="1090" cy="220" r="4" fill="#14b8a6"/><circle cx="1130" cy="270" r="4" fill="#14b8a6"/><circle cx="1070" cy="310" r="4" fill="#14b8a6"/><circle cx="1110" cy="340" r="4" fill="#14b8a6"/><line x1="1080" x2="1120" y1="80" y2="120" stroke="#14b8a6" stroke-width=".8" opacity=".5"/><line x1="1120" x2="1060" y1="120" y2="150" stroke="#14b8a6" stroke-width=".8" opacity=".5"/><line x1="1060" x2="1140" y1="150" y2="180" stroke="#14b8a6" stroke-width=".8" opacity=".5"/><line x1="1140" x2="1090" y1="180" y2="220" stroke="#14b8a6" stroke-width=".8" opacity=".5"/><line x1="1090" x2="1130" y1="220" y2="270" stroke="#14b8a6" stroke-width=".8" opacity=".5"/><line x1="1130" x2="1070" y1="270" y2="310" stroke="#14b8a6" stroke-width=".8" opacity=".5"/><line x1="1070" x2="1110" y1="310" y2="340" stroke="#14b8a6" stroke-width=".8" opacity=".5"/><line x1="1080" x2="1060" y1="80" y2="150" stroke="#14b8a6" stroke-width=".5" opacity=".3"/><line x1="1120" x2="1140" y1="120" y2="180" stroke="#14b8a6" stroke-width=".5" opacity=".3"/><line x1="1090" x2="1070" y1="220" y2="310" stroke="#14b8a6" stroke-width=".5" opacity=".3"/></g><circle cx="600" cy="110" r="35" fill="#06b6d4" opacity=".08"/><g transform="translate(600, 110)"><rect width="24" height="60" x="-12" y="-30" fill="url(#accent)" opacity=".9" rx="4"/><rect width="60" height="24" x="-30" y="-12" fill="url(#accent)" opacity=".9" rx="4"/></g><text x="600" y="195" fill="#fff" font-family="'Segoe UI', system-ui, -apple-system, sans-serif" font-size="48" font-weight="700" letter-spacing="1" text-anchor="middle">NexusHealth</text><rect width="300" height="3" x="450" y="215" fill="url(#accent)" opacity=".8" rx="2"/><text x="600" y="255" fill="#94a3b8" font-family="'Segoe UI', system-ui, -apple-system, sans-serif" font-size="18" font-weight="400" letter-spacing="3" text-anchor="middle">CLINICAL DECISION SUPPORT PLATFORM</text><g font-family="'Segoe UI', system-ui, -apple-system, sans-serif" font-size="12" font-weight="500"><rect width="120" height="30" x="195" y="290" fill="#06b6d4" stroke="#06b6d4" stroke-opacity=".3" stroke-width=".8" opacity=".15" rx="15"/><text x="255" y="310" fill="#06b6d4" text-anchor="middle">5 ML Models</text><rect width="130" height="30" x="335" y="290" fill="#14b8a6" stroke="#14b8a6" stroke-opacity=".3" stroke-width=".8" opacity=".15" rx="15"/><text x="400" y="310" fill="#14b8a6" text-anchor="middle">3-Tier AI Engine</text><rect width="120" height="30" x="485" y="290" fill="#8b5cf6" stroke="#8b5cf6" stroke-opacity=".3" stroke-width=".8" opacity=".15" rx="15"/><text x="545" y="310" fill="#8b5cf6" text-anchor="middle">RAG Pipeline</text><rect width="140" height="30" x="625" y="290" fill="#f59e0b" stroke="#f59e0b" stroke-opacity=".3" stroke-width=".8" opacity=".15" rx="15"/><text x="695" y="310" fill="#f59e0b" text-anchor="middle">LangGraph Agent</text><rect width="120" height="30" x="785" y="290" fill="#ef4444" stroke="#ef4444" stroke-opacity=".3" stroke-width=".8" opacity=".15" rx="15"/><text x="845" y="310" fill="#ef4444" text-anchor="middle">Enterprise K8s</text></g><text x="600" y="360" fill="#64748b" font-family="'Segoe UI', system-ui, -apple-system, sans-serif" font-size="11" letter-spacing="2" text-anchor="middle">FASTAPI · NEXT.JS · SCIKIT-LEARN · XGBOOST · DOCKER · TERRAFORM · POSTGRESQL · REDIS</text><rect width="1200" height="4" x="0" y="396" fill="url(#accent)" opacity=".6"/></svg>