<svg xmlns="http://www.w3.org/2000/svg" width="1280" height="640" viewBox="0 0 1280 640"><defs><linearGradient id="bg" x1="0%" x2="100%" y1="0%" y2="100%"><stop offset="0%" style="stop-color:#0f172a"/><stop offset="40%" style="stop-color:#1e293b"/><stop offset="100%" style="stop-color:#0f172a"/></linearGradient><linearGradient id="accent" x1="0%" x2="100%" y1="0%" y2="0%"><stop offset="0%" style="stop-color:#06b6d4"/><stop offset="100%" style="stop-color:#14b8a6"/></linearGradient></defs><rect width="1280" height="640" fill="url(#bg)"/><circle cx="250" cy="320" r="200" fill="#06b6d4" opacity=".03"/><circle cx="1030" cy="320" r="200" fill="#14b8a6" opacity=".03"/><g stroke="#94a3b8" stroke-width=".5" opacity=".03"><line x1="0" x2="1280" y1="128" y2="128"/><line x1="0" x2="1280" y1="256" y2="256"/><line x1="0" x2="1280" y1="384" y2="384"/><line x1="0" x2="1280" y1="512" y2="512"/><line x1="160" x2="160" y1="0" y2="640"/><line x1="320" x2="320" y1="0" y2="640"/><line x1="480" x2="480" y1="0" y2="640"/><line x1="640" x2="640" y1="0" y2="640"/><line x1="800" x2="800" y1="0" y2="640"/><line x1="960" x2="960" y1="0" y2="640"/><line x1="1120" x2="1120" y1="0" y2="640"/></g><polyline fill="none" stroke="#06b6d4" stroke-width="2.5" points="40 320 100 320 130 320 150 280 165 370 180 300 190 340 200 320 320 320" opacity=".2"/><polyline fill="none" stroke="#14b8a6" stroke-width="2.5" points="960 320 1020 320 1050 320 1070 280 1085 370 1100 300 1110 340 1120 320 1240 320" opacity=".2"/><g fill="none" stroke="#06b6d4" stroke-width="1.5" opacity=".12"><path d="M 80,80 Q 105,140 80,200 Q 55,260 80,320 Q 105,380 80,440 Q 55,500 80,560"/><path d="M 105,80 Q 80,140 105,200 Q 130,260 105,320 Q 80,380 105,440 Q 130,500 105,560"/><line x1="84" x2="101" y1="140" y2="140"/><line x1="62" x2="123" y1="260" y2="260"/><line x1="84" x2="101" y1="380" y2="380"/><line x1="62" x2="123" y1="500" y2="500"/></g><g opacity=".1"><circle cx="1160" cy="120" r="5" fill="#14b8a6"/><circle cx="1200" cy="180" r="5" fill="#14b8a6"/><circle cx="1140" cy="230" r="5" fill="#14b8a6"/><circle cx="1210" cy="290" r="5" fill="#14b8a6"/><circle cx="1170" cy="360" r="5" fill="#14b8a6"/><circle cx="1200" cy="430" r="5" fill="#14b8a6"/><circle cx="1150" cy="490" r="5" fill="#14b8a6"/><circle cx="1190" cy="540" r="5" fill="#14b8a6"/><line x1="1160" x2="1200" y1="120" y2="180" stroke="#14b8a6" stroke-width="1" opacity=".4"/><line x1="1200" x2="1140" y1="180" y2="230" stroke="#14b8a6" stroke-width="1" opacity=".4"/><line x1="1140" x2="1210" y1="230" y2="290" stroke="#14b8a6" stroke-width="1" opacity=".4"/><line x1="1210" x2="1170" y1="290" y2="360" stroke="#14b8a6" stroke-width="1" opacity=".4"/><line x1="1170" x2="1200" y1="360" y2="430" stroke="#14b8a6" stroke-width="1" opacity=".4"/><line x1="1200" x2="1150" y1="430" y2="490" stroke="#14b8a6" stroke-width="1" opacity=".4"/><line x1="1150" x2="1190" y1="490" y2="540" stroke="#14b8a6" stroke-width="1" opacity=".4"/></g><circle cx="640" cy="170" r="45" fill="#06b6d4" opacity=".06"/><g transform="translate(640, 170)"><rect width="30" height="76" x="-15" y="-38" fill="url(#accent)" opacity=".9" rx="5"/><rect width="76" height="30" x="-38" y="-15" fill="url(#accent)" opacity=".9" rx="5"/></g><text x="640" y="280" fill="#fff" font-family="'Segoe UI', system-ui, sans-serif" font-size="56" font-weight="700" letter-spacing="1" text-anchor="middle">NexusHealth</text><rect width="400" height="3" x="440" y="300" fill="url(#accent)" opacity=".8" rx="2"/><text x="640" y="345" fill="#94a3b8" font-family="'Segoe UI', system-ui, sans-serif" font-size="22" letter-spacing="4" text-anchor="middle">CLINICAL DECISION SUPPORT PLATFORM</text><text x="640" y="395" fill="#64748b" font-family="'Segoe UI', system-ui, sans-serif" font-size="16" text-anchor="middle">5 ML Models · 3-Tier AI Engine · RAG Pipeline · LangGraph Agent · Enterprise K8s</text><g font-family="'Segoe UI', system-ui, sans-serif" font-size="13" font-weight="500"><rect width="90" height="28" x="200" y="440" fill="#3776AB" stroke="#3776AB" stroke-opacity=".4" stroke-width=".8" opacity=".2" rx="14"/><text x="245" y="459" fill="#60a5fa" text-anchor="middle">Python</text><rect width="90" height="28" x="310" y="440" fill="#009688" stroke="#009688" stroke-opacity=".4" stroke-width=".8" opacity=".2" rx="14"/><text x="355" y="459" fill="#2dd4bf" text-anchor="middle">FastAPI</text><rect width="90" height="28" x="420" y="440" fill="#fff" stroke="#fff" stroke-opacity=".2" stroke-width=".8" opacity=".08" rx="14"/><text x="465" y="459" fill="#e2e8f0" text-anchor="middle">Next.js</text><rect width="110" height="28" x="530" y="440" fill="#FF6F00" stroke="#FF6F00" stroke-opacity=".4" stroke-width=".8" opacity=".2" rx="14"/><text x="585" y="459" fill="#fb923c" text-anchor="middle">LangGraph</text><rect width="110" height="28" x="660" y="440" fill="#F7931E" stroke="#F7931E" stroke-opacity=".4" stroke-width=".8" opacity=".2" rx="14"/><text x="715" y="459" fill="#fbbf24" text-anchor="middle">scikit-learn</text><rect width="90" height="28" x="790" y="440" fill="#2496ED" stroke="#2496ED" stroke-opacity=".4" stroke-width=".8" opacity=".2" rx="14"/><text x="835" y="459" fill="#60a5fa" text-anchor="middle">Docker</text><rect width="100" height="28" x="900" y="440" fill="#7B42BC" stroke="#7B42BC" stroke-opacity=".4" stroke-width=".8" opacity=".2" rx="14"/><text x="950" y="459" fill="#a78bfa" text-anchor="middle">Terraform</text></g><text x="640" y="530" fill="#475569" font-family="'Segoe UI', system-ui, sans-serif" font-size="14" text-anchor="middle">github.com/stevegonsalves18/NexusHealth</text><text x="640" y="560" fill="#334155" font-family="'Segoe UI', system-ui, sans-serif" font-size="12" text-anchor="middle">MIT License · Open Source · Production-Ready</text><rect width="1280" height="3" x="0" y="0" fill="url(#accent)" opacity=".5"/><rect width="1280" height="3" x="0" y="637" fill="url(#accent)" opacity=".5"/></svg>